# xmcd
#
# Track frame offsets: 
#        150
#        12417
#        27465
#        42397
#        53975
#        65897
#        82722
#        94827
#        108280
#        120445
#        135320
#        148415
#        161057
#        172992
#
# Disc length: 2513 seconds
#
# Revision: 1
# Processed by: cddbd v1.5.1PL0 Copyright (c) Steve Scherf et al.
# Submitted via: ExactAudioCopy v0.95a5
#
DISCID=bd09cf0e
DTITLE=Roy Clark - Roy Clark Greatest Hits
DYEAR=1995
DGENRE=
TTITLE0=Tips Of My Fingers
TTITLE1=Yesterday, When I Was Young
TTITLE2=Right Or Left At Oak Street
TTITLE3=I Never Picked Cotton
TTITLE4=Thank God And Greyhound
TTITLE5=Magnificent Sanctuary Band
TTITLE6=The Lawrence Welk- Hee Haw Counter- Revolution Polka
TTITLE7=Come Live With Me
TTITLE8=Riders In The Sky
TTITLE9=Somewhere Between Love And Tomorrow
TTITLE10=Honeymoon Feelin'
TTITLE11=Heart To Heart
TTITLE12=If I Had To Do It All Over Again
TTITLE13=Think Summer
EXTD=
EXTT0=
EXTT1=
EXTT2=
EXTT3=
EXTT4=
EXTT5=
EXTT6=
EXTT7=
EXTT8=
EXTT9=
EXTT10=
EXTT11=
EXTT12=
EXTT13=
PLAYORDER=
